<?xml version="1.0" standalone="no"?>
<!DOCTYPE svg PUBLIC "-//W3C//DTD SVG 20010904//EN"
 "http://www.w3.org/TR/2001/REC-SVG-20010904/DTD/svg10.dtd">
<svg version="1.0" xmlns="http://www.w3.org/2000/svg"
 width="160.000000pt" height="160.000000pt" viewBox="0 0 160.000000 160.000000"
 preserveAspectRatio="xMidYMid meet">
<metadata>
Created by potrace 1.16, written by Peter Selinger 2001-2019
</metadata>
<g transform="translate(0.000000,160.000000) scale(0.100000,-0.100000)"
fill="#000000" stroke="none">
<path d="M197 1313 c-86 -2 -136 -7 -132 -13 3 -6 1 -10 -4 -10 -6 0 -11 -7
-11 -16 0 -8 4 -13 9 -10 5 3 11 -1 15 -9 4 -12 27 -15 117 -15 94 0 114 -3
126 -17 8 -10 11 -12 7 -4 -5 10 -3 12 5 7 7 -5 10 -15 7 -23 -3 -8 1 -21 9
-29 17 -17 21 -39 5 -29 -6 3 -7 -1 -4 -9 3 -9 10 -16 16 -16 5 0 6 -9 3 -20
-4 -12 -2 -20 5 -20 6 0 8 -4 5 -10 -3 -5 -1 -10 5 -10 7 0 9 -7 6 -16 -3 -8
1 -23 10 -31 8 -9 13 -24 11 -34 -3 -11 -1 -19 5 -19 6 0 8 -9 5 -20 -3 -11
-1 -20 5 -20 5 0 6 -4 3 -10 -3 -5 -1 -10 6 -10 6 0 9 -8 6 -20 -3 -11 -1 -20
5 -20 6 0 8 -9 5 -20 -3 -12 -1 -18 5 -14 6 4 8 -2 3 -16 -5 -17 -4 -21 6 -15
9 6 11 2 7 -13 -4 -12 -2 -22 3 -22 4 0 6 -7 3 -15 -4 -8 -1 -15 6 -15 7 0 9
-8 5 -21 -5 -16 -4 -19 6 -14 9 6 11 2 7 -13 -4 -14 -2 -20 4 -16 6 4 8 -1 3
-15 -4 -13 -2 -21 5 -21 7 0 9 -8 5 -20 -4 -12 -2 -20 5 -20 6 0 8 -4 5 -10
-3 -5 -1 -10 5 -10 6 0 8 -4 5 -10 -3 -6 -2 -10 2 -10 5 0 13 -13 19 -28 9
-24 8 -31 -5 -41 -9 -6 -10 -9 -4 -6 8 4 11 1 7 -9 -3 -9 -10 -16 -15 -16 -5
0 -9 -13 -9 -30 0 -16 5 -30 11 -30 6 0 9 -7 5 -15 -3 -8 0 -18 7 -22 7 -5 17
-17 24 -28 6 -11 16 -19 22 -18 6 2 10 -3 8 -10 -1 -7 7 -11 21 -10 12 2 22
-2 22 -7 0 -6 14 -10 30 -10 17 0 30 5 30 11 0 6 7 8 15 5 9 -3 18 1 21 9 4 8
10 13 14 10 4 -2 15 4 25 15 10 11 14 20 9 20 -5 0 -2 5 8 10 10 6 14 18 11
30 -3 11 0 20 6 20 13 0 15 27 2 32 -5 2 -13 15 -16 31 l-7 27 178 -1 c99 0
174 -3 167 -5 -7 -3 -10 -11 -7 -19 3 -7 1 -16 -5 -20 -14 -8 -14 -55 0 -55 6
0 8 -9 4 -21 -5 -15 -4 -19 4 -15 6 4 11 0 11 -8 0 -9 5 -16 11 -16 5 0 7 -4
4 -10 -3 -5 0 -10 8 -10 8 0 17 -6 20 -14 4 -9 14 -12 28 -9 15 4 20 3 15 -5
-5 -8 4 -12 28 -12 20 0 36 4 36 9 0 5 7 12 16 15 10 4 13 2 9 -7 -4 -6 1 -3
9 7 9 11 16 16 16 12 0 -5 7 -3 15 4 8 7 12 16 9 21 -3 5 1 12 10 15 9 3 12
12 9 21 -4 9 -2 14 3 11 5 -4 9 14 9 38 0 24 -4 44 -9 44 -4 0 -5 7 -2 15 3 9
-1 18 -11 22 -14 5 -11 10 13 31 16 13 22 21 14 17 -13 -5 -13 -5 0 7 9 7 14
21 12 31 -2 9 2 17 8 17 6 0 8 4 5 10 -3 5 -1 10 5 10 7 0 9 7 6 16 -3 8 1 22
9 30 8 9 15 21 15 27 0 7 -4 6 -10 -3 -6 -9 -10 -10 -10 -3 0 6 7 18 15 27 8
8 12 21 9 29 -3 8 2 21 10 30 9 9 13 23 10 31 -3 9 -1 16 6 16 7 0 9 8 5 21
-5 14 -3 19 3 15 6 -4 8 2 4 16 -3 15 -2 19 7 14 9 -6 10 0 6 21 -5 23 -4 25
5 13 10 -12 11 -11 7 8 -3 12 -2 22 1 22 4 0 7 18 7 40 0 22 -4 40 -9 40 -5 0
-7 2 -4 5 9 9 -55 70 -69 67 -7 -2 -13 2 -13 8 0 7 -161 10 -506 10 -501 0
-506 0 -501 20 3 11 1 20 -5 20 -5 0 -6 5 -3 10 3 6 1 10 -4 10 -6 0 -11 5
-11 11 0 5 4 7 10 4 6 -3 7 1 4 9 -3 9 -10 16 -14 16 -4 0 -11 7 -14 16 -4 10
-2 13 7 9 6 -4 3 1 -7 9 -11 9 -16 16 -12 16 5 0 3 7 -4 15 -7 8 -16 12 -21 9
-5 -3 -12 2 -15 10 -3 9 -9 15 -13 14 -3 -1 -68 -4 -144 -5z m1262 -302 c8
-15 -4 -66 -53 -226 -35 -113 -67 -209 -71 -213 -4 -4 -161 -8 -349 -10 -317
-3 -344 -1 -363 15 -14 12 -40 85 -82 229 -33 116 -61 214 -61 218 0 3 218 6
485 6 466 0 485 -1 494 -19z"/>
<path d="M726 852 c-2 -4 -1 -13 3 -20 6 -9 72 -12 272 -10 227 3 264 5 264
18 0 13 -37 15 -267 18 -147 1 -269 -1 -272 -6z"/>
<path d="M755 720 c-16 -26 14 -30 241 -30 219 0 235 1 232 18 -3 15 -23 17
-235 20 -149 1 -234 -1 -238 -8z"/>
</g>
</svg>
